<?xml version="1.0" encoding="UTF-8" standalone="no"?>
<!DOCTYPE svg PUBLIC "-//W3C//DTD SVG 1.1//EN"
 "http://www.w3.org/Graphics/SVG/1.1/DTD/svg11.dtd">
<!-- Generated by graphviz version 2.43.0 (0)
 -->
<!-- Title: snakemake_dag Pages: 1 -->
<svg width="482pt" height="349pt"
 viewBox="0.00 0.00 482.00 349.00" xmlns="http://www.w3.org/2000/svg" xmlns:xlink="http://www.w3.org/1999/xlink">
<g id="graph0" class="graph" transform="scale(1 1) rotate(0) translate(4 345)">
<title>snakemake_dag</title>
<polygon fill="white" stroke="transparent" points="-4,4 -4,-345 478,-345 478,4 -4,4"/>
<g id="clust1" class="cluster">
<title>cluster_0</title>
<path fill="white" stroke="black" stroke-width="2" d="M20,-150C20,-150 82,-150 82,-150 88,-150 94,-156 94,-162 94,-162 94,-321 94,-321 94,-327 88,-333 82,-333 82,-333 20,-333 20,-333 14,-333 8,-327 8,-321 8,-321 8,-162 8,-162 8,-156 14,-150 20,-150"/>
<text text-anchor="middle" x="51" y="-321" font-family="sans" font-size="10.00">Input</text>
</g>
<g id="clust2" class="cluster">
<title>cluster_1</title>
<path fill="white" stroke="black" stroke-width="2" d="M122,-158C122,-158 356,-158 356,-158 362,-158 368,-164 368,-170 368,-170 368,-221 368,-221 368,-227 362,-233 356,-233 356,-233 122,-233 122,-233 116,-233 110,-227 110,-221 110,-221 110,-170 110,-170 110,-164 116,-158 122,-158"/>
<text text-anchor="middle" x="239" y="-221" font-family="sans" font-size="10.00">Preprocessing</text>
</g>
<g id="clust3" class="cluster">
<title>cluster_2</title>
<path fill="white" stroke="black" stroke-width="2" d="M396,-8C396,-8 454,-8 454,-8 460,-8 466,-14 466,-20 466,-20 466,-233 466,-233 466,-239 460,-245 454,-245 454,-245 396,-245 396,-245 390,-245 384,-239 384,-233 384,-233 384,-20 384,-20 384,-14 390,-8 396,-8"/>
<text text-anchor="middle" x="425" y="-233" font-family="sans" font-size="10.00">Statistics</text>
</g>
<!-- reads -->
<g id="node1" class="node">
<title>reads</title>
<path fill="none" stroke="#5692d8" stroke-width="2" d="M66,-196C66,-196 36,-196 36,-196 30,-196 24,-190 24,-184 24,-184 24,-172 24,-172 24,-166 30,-160 36,-160 36,-160 66,-160 66,-160 72,-160 78,-166 78,-172 78,-172 78,-184 78,-184 78,-190 72,-196 66,-196"/>
<text text-anchor="middle" x="51" y="-181" font-family="sans" font-size="10.00">FASTQ</text>
<text text-anchor="middle" x="51" y="-170" font-family="sans" font-size="10.00">reads</text>
</g>
<!-- fastp -->
<g id="node4" class="node">
<title>fastp</title>
<path fill="none" stroke="#566bd8" stroke-width="2" d="M162,-204C162,-204 132,-204 132,-204 126,-204 120,-198 120,-192 120,-192 120,-180 120,-180 120,-174 126,-168 132,-168 132,-168 162,-168 162,-168 168,-168 174,-174 174,-180 174,-180 174,-192 174,-192 174,-198 168,-204 162,-204"/>
<text text-anchor="middle" x="147" y="-183.5" font-family="sans" font-size="10.00">fastp</text>
</g>
<!-- reads&#45;&gt;fastp -->
<g id="edge1" class="edge">
<title>reads&#45;&gt;fastp</title>
<path fill="none" stroke="grey" stroke-width="2" d="M78.18,-180.23C87.96,-181.06 99.25,-182.02 109.77,-182.92"/>
<polygon fill="grey" stroke="grey" stroke-width="2" points="109.7,-186.42 119.96,-183.78 110.29,-179.45 109.7,-186.42"/>
</g>
<!-- mags -->
<g id="node2" class="node">
<title>mags</title>
<path fill="none" stroke="#d88d56" stroke-width="2" d="M72,-304C72,-304 30,-304 30,-304 24,-304 18,-298 18,-292 18,-292 18,-280 18,-280 18,-274 24,-268 30,-268 30,-268 72,-268 72,-268 78,-268 84,-274 84,-280 84,-280 84,-292 84,-292 84,-298 78,-304 72,-304"/>
<text text-anchor="middle" x="51" y="-289" font-family="sans" font-size="10.00">MAG</text>
<text text-anchor="middle" x="51" y="-278" font-family="sans" font-size="10.00">Catalogue</text>
</g>
<!-- bowtie2_mags -->
<g id="node6" class="node">
<title>bowtie2_mags</title>
<path fill="none" stroke="#d86656" stroke-width="2" d="M346,-204C346,-204 314,-204 314,-204 308,-204 302,-198 302,-192 302,-192 302,-180 302,-180 302,-174 308,-168 314,-168 314,-168 346,-168 346,-168 352,-168 358,-174 358,-180 358,-180 358,-192 358,-192 358,-198 352,-204 346,-204"/>
<text text-anchor="middle" x="330" y="-189" font-family="sans" font-size="10.00">bowtie2</text>
<text text-anchor="middle" x="330" y="-178" font-family="sans" font-size="10.00">MAGs</text>
</g>
<!-- mags&#45;&gt;bowtie2_mags -->
<g id="edge3" class="edge">
<title>mags&#45;&gt;bowtie2_mags</title>
<path fill="none" stroke="grey" stroke-width="2" d="M84.18,-275.87C126.29,-262.42 202.24,-237.5 266,-213 274.64,-209.68 283.84,-205.89 292.46,-202.22"/>
<polygon fill="grey" stroke="grey" stroke-width="2" points="294.1,-205.32 301.9,-198.15 291.33,-198.89 294.1,-205.32"/>
</g>
<!-- reference -->
<g id="node3" class="node">
<title>reference</title>
<path fill="none" stroke="#d8cb56" stroke-width="2" d="M68,-250C68,-250 34,-250 34,-250 28,-250 22,-244 22,-238 22,-238 22,-226 22,-226 22,-220 28,-214 34,-214 34,-214 68,-214 68,-214 74,-214 80,-220 80,-226 80,-226 80,-238 80,-238 80,-244 74,-250 68,-250"/>
<text text-anchor="middle" x="51" y="-235" font-family="sans" font-size="10.00">Host</text>
<text text-anchor="middle" x="51" y="-224" font-family="sans" font-size="10.00">Genome</text>
</g>
<!-- bowtie2_host -->
<g id="node5" class="node">
<title>bowtie2_host</title>
<path fill="none" stroke="#56d8a2" stroke-width="2" d="M254,-204C254,-204 222,-204 222,-204 216,-204 210,-198 210,-192 210,-192 210,-180 210,-180 210,-174 216,-168 222,-168 222,-168 254,-168 254,-168 260,-168 266,-174 266,-180 266,-180 266,-192 266,-192 266,-198 260,-204 254,-204"/>
<text text-anchor="middle" x="238" y="-189" font-family="sans" font-size="10.00">bowtie2</text>
<text text-anchor="middle" x="238" y="-178" font-family="sans" font-size="10.00">Hosts</text>
</g>
<!-- reference&#45;&gt;bowtie2_host -->
<g id="edge2" class="edge">
<title>reference&#45;&gt;bowtie2_host</title>
<path fill="none" stroke="grey" stroke-width="2" d="M80.05,-229.64C105.06,-227.07 142.48,-222.05 174,-213 182.81,-210.47 192.02,-207.02 200.59,-203.43"/>
<polygon fill="grey" stroke="grey" stroke-width="2" points="202.17,-206.56 209.95,-199.36 199.38,-200.14 202.17,-206.56"/>
</g>
<!-- fastp&#45;&gt;bowtie2_host -->
<g id="edge7" class="edge">
<title>fastp&#45;&gt;bowtie2_host</title>
<path fill="none" stroke="grey" stroke-width="2" d="M174.22,-186C182.17,-186 191.06,-186 199.59,-186"/>
<polygon fill="grey" stroke="grey" stroke-width="2" points="199.73,-189.5 209.73,-186 199.73,-182.5 199.73,-189.5"/>
</g>
<!-- nonpareil -->
<g id="node7" class="node">
<title>nonpareil</title>
<path fill="none" stroke="#d8c356" stroke-width="2" d="M444,-54C444,-54 406,-54 406,-54 400,-54 394,-48 394,-42 394,-42 394,-30 394,-30 394,-24 400,-18 406,-18 406,-18 444,-18 444,-18 450,-18 456,-24 456,-30 456,-30 456,-42 456,-42 456,-48 450,-54 444,-54"/>
<text text-anchor="middle" x="425" y="-33.5" font-family="sans" font-size="10.00">nonpareil</text>
</g>
<!-- fastp&#45;&gt;nonpareil -->
<g id="edge5" class="edge">
<title>fastp&#45;&gt;nonpareil</title>
<path fill="none" stroke="grey" stroke-width="2" d="M161.58,-167.95C173.13,-153.62 190.87,-133.91 210,-121 265.15,-83.79 339.03,-59.04 383.98,-46.27"/>
<polygon fill="grey" stroke="grey" stroke-width="2" points="384.97,-49.63 393.66,-43.58 383.09,-42.89 384.97,-49.63"/>
</g>
<!-- singlem -->
<g id="node9" class="node">
<title>singlem</title>
<path fill="none" stroke="#88d856" stroke-width="2" d="M441,-162C441,-162 409,-162 409,-162 403,-162 397,-156 397,-150 397,-150 397,-138 397,-138 397,-132 403,-126 409,-126 409,-126 441,-126 441,-126 447,-126 453,-132 453,-138 453,-138 453,-150 453,-150 453,-156 447,-162 441,-162"/>
<text text-anchor="middle" x="425" y="-141.5" font-family="sans" font-size="10.00">SingleM</text>
</g>
<!-- fastp&#45;&gt;singlem -->
<g id="edge6" class="edge">
<title>fastp&#45;&gt;singlem</title>
<path fill="none" stroke="grey" stroke-width="2" d="M174.16,-172.25C184.97,-167.2 197.8,-161.99 210,-159 270.65,-144.13 343.66,-142.31 386.82,-142.82"/>
<polygon fill="grey" stroke="grey" stroke-width="2" points="386.8,-146.32 396.86,-142.98 386.92,-139.32 386.8,-146.32"/>
</g>
<!-- kraken2 -->
<g id="node10" class="node">
<title>kraken2</title>
<path fill="none" stroke="#d85e56" stroke-width="2" d="M441,-108C441,-108 409,-108 409,-108 403,-108 397,-102 397,-96 397,-96 397,-84 397,-84 397,-78 403,-72 409,-72 409,-72 441,-72 441,-72 447,-72 453,-78 453,-84 453,-84 453,-96 453,-96 453,-102 447,-108 441,-108"/>
<text text-anchor="middle" x="425" y="-87.5" font-family="sans" font-size="10.00">kraken2</text>
</g>
<!-- fastp&#45;&gt;kraken2 -->
<g id="edge4" class="edge">
<title>fastp&#45;&gt;kraken2</title>
<path fill="none" stroke="grey" stroke-width="2" d="M171.36,-167.87C182.55,-159.91 196.44,-151.02 210,-145 269.07,-118.77 343.09,-103.24 386.79,-95.69"/>
<polygon fill="grey" stroke="grey" stroke-width="2" points="387.41,-99.14 396.69,-94.03 386.25,-92.23 387.41,-99.14"/>
</g>
<!-- bowtie2_host&#45;&gt;bowtie2_mags -->
<g id="edge8" class="edge">
<title>bowtie2_host&#45;&gt;bowtie2_mags</title>
<path fill="none" stroke="grey" stroke-width="2" d="M266,-186C274.03,-186 282.97,-186 291.53,-186"/>
<polygon fill="grey" stroke="grey" stroke-width="2" points="291.71,-189.5 301.71,-186 291.7,-182.5 291.71,-189.5"/>
</g>
<!-- coverm -->
<g id="node8" class="node">
<title>coverm</title>
<path fill="none" stroke="#88d856" stroke-width="2" d="M440,-216C440,-216 410,-216 410,-216 404,-216 398,-210 398,-204 398,-204 398,-192 398,-192 398,-186 404,-180 410,-180 410,-180 440,-180 440,-180 446,-180 452,-186 452,-192 452,-192 452,-204 452,-204 452,-210 446,-216 440,-216"/>
<text text-anchor="middle" x="425" y="-195.5" font-family="sans" font-size="10.00">coverm</text>
</g>
<!-- bowtie2_mags&#45;&gt;coverm -->
<g id="edge9" class="edge">
<title>bowtie2_mags&#45;&gt;coverm</title>
<path fill="none" stroke="grey" stroke-width="2" d="M358.4,-189.54C367.53,-190.71 377.85,-192.04 387.55,-193.3"/>
<polygon fill="grey" stroke="grey" stroke-width="2" points="387.39,-196.8 397.75,-194.61 388.28,-189.86 387.39,-196.8"/>
</g>
</g>
</svg>
