<?xml version="1.0" encoding="UTF-8" standalone="no"?>
<!DOCTYPE svg PUBLIC "-//W3C//DTD SVG 1.1//EN"
 "http://www.w3.org/Graphics/SVG/1.1/DTD/svg11.dtd">
<!-- Generated by graphviz version 2.43.0 (0)
 -->
<!-- Title: snakemake_dag Pages: 1 -->
<svg width="386pt" height="357pt"
 viewBox="0.00 0.00 386.00 357.00" xmlns="http://www.w3.org/2000/svg" xmlns:xlink="http://www.w3.org/1999/xlink">
<g id="graph0" class="graph" transform="scale(1 1) rotate(0) translate(4 353)">
<title>snakemake_dag</title>
<polygon fill="white" stroke="transparent" points="-4,4 -4,-353 382,-353 382,4 -4,4"/>
<g id="clust1" class="cluster">
<title>cluster_0</title>
<path fill="white" stroke="black" stroke-width="2" d="M20,-266C20,-266 266,-266 266,-266 272,-266 278,-272 278,-278 278,-278 278,-329 278,-329 278,-335 272,-341 266,-341 266,-341 20,-341 20,-341 14,-341 8,-335 8,-329 8,-329 8,-278 8,-278 8,-272 14,-266 20,-266"/>
<text text-anchor="middle" x="143" y="-329" font-family="sans" font-size="10.00">Input</text>
</g>
<g id="clust2" class="cluster">
<title>cluster_1</title>
<path fill="white" stroke="black" stroke-width="2" d="M112,-191C112,-191 358,-191 358,-191 364,-191 370,-197 370,-203 370,-203 370,-254 370,-254 370,-260 364,-266 358,-266 358,-266 112,-266 112,-266 106,-266 100,-260 100,-254 100,-254 100,-203 100,-203 100,-197 106,-191 112,-191"/>
<text text-anchor="middle" x="235" y="-254" font-family="sans" font-size="10.00">Preprocessing</text>
</g>
<g id="clust3" class="cluster">
<title>cluster_2</title>
<path fill="white" stroke="black" stroke-width="2" d="M206,-8C206,-8 357,-8 357,-8 363,-8 369,-14 369,-20 369,-20 369,-179 369,-179 369,-185 363,-191 357,-191 357,-191 206,-191 206,-191 200,-191 194,-185 194,-179 194,-179 194,-20 194,-20 194,-14 200,-8 206,-8"/>
<text text-anchor="middle" x="281.5" y="-179" font-family="sans" font-size="10.00">Statistics</text>
</g>
<!-- reads -->
<g id="node1" class="node">
<title>reads</title>
<path fill="none" stroke="#5692d8" stroke-width="2" d="M60,-312C60,-312 30,-312 30,-312 24,-312 18,-306 18,-300 18,-300 18,-288 18,-288 18,-282 24,-276 30,-276 30,-276 60,-276 60,-276 66,-276 72,-282 72,-288 72,-288 72,-300 72,-300 72,-306 66,-312 60,-312"/>
<text text-anchor="middle" x="45" y="-297" font-family="sans" font-size="10.00">FASTQ</text>
<text text-anchor="middle" x="45" y="-286" font-family="sans" font-size="10.00">reads</text>
</g>
<!-- fastp -->
<g id="node4" class="node">
<title>fastp</title>
<path fill="none" stroke="#566bd8" stroke-width="2" d="M152,-237C152,-237 122,-237 122,-237 116,-237 110,-231 110,-225 110,-225 110,-213 110,-213 110,-207 116,-201 122,-201 122,-201 152,-201 152,-201 158,-201 164,-207 164,-213 164,-213 164,-225 164,-225 164,-231 158,-237 152,-237"/>
<text text-anchor="middle" x="137" y="-216.5" font-family="sans" font-size="10.00">fastp</text>
</g>
<!-- reads&#45;&gt;fastp -->
<g id="edge3" class="edge">
<title>reads&#45;&gt;fastp</title>
<path fill="none" stroke="grey" stroke-width="2" d="M67.79,-275.84C79.31,-266.24 93.63,-254.31 106.17,-243.86"/>
<polygon fill="grey" stroke="grey" stroke-width="2" points="108.66,-246.34 114.1,-237.25 104.18,-240.96 108.66,-246.34"/>
</g>
<!-- mags -->
<g id="node2" class="node">
<title>mags</title>
<path fill="none" stroke="#d88d56" stroke-width="2" d="M256,-312C256,-312 214,-312 214,-312 208,-312 202,-306 202,-300 202,-300 202,-288 202,-288 202,-282 208,-276 214,-276 214,-276 256,-276 256,-276 262,-276 268,-282 268,-288 268,-288 268,-300 268,-300 268,-306 262,-312 256,-312"/>
<text text-anchor="middle" x="235" y="-297" font-family="sans" font-size="10.00">MAG</text>
<text text-anchor="middle" x="235" y="-286" font-family="sans" font-size="10.00">Catalogue</text>
</g>
<!-- bowtie2_mags -->
<g id="node6" class="node">
<title>bowtie2_mags</title>
<path fill="none" stroke="#d86656" stroke-width="2" d="M348,-237C348,-237 316,-237 316,-237 310,-237 304,-231 304,-225 304,-225 304,-213 304,-213 304,-207 310,-201 316,-201 316,-201 348,-201 348,-201 354,-201 360,-207 360,-213 360,-213 360,-225 360,-225 360,-231 354,-237 348,-237"/>
<text text-anchor="middle" x="332" y="-222" font-family="sans" font-size="10.00">bowtie2</text>
<text text-anchor="middle" x="332" y="-211" font-family="sans" font-size="10.00">MAGs</text>
</g>
<!-- mags&#45;&gt;bowtie2_mags -->
<g id="edge5" class="edge">
<title>mags&#45;&gt;bowtie2_mags</title>
<path fill="none" stroke="grey" stroke-width="2" d="M268.18,-276.72C271.57,-274.57 274.91,-272.32 278,-270 288.12,-262.42 298.34,-253.08 307.07,-244.47"/>
<polygon fill="grey" stroke="grey" stroke-width="2" points="309.76,-246.72 314.31,-237.15 304.79,-241.79 309.76,-246.72"/>
</g>
<!-- reference -->
<g id="node3" class="node">
<title>reference</title>
<path fill="none" stroke="#d8cb56" stroke-width="2" d="M154,-312C154,-312 120,-312 120,-312 114,-312 108,-306 108,-300 108,-300 108,-288 108,-288 108,-282 114,-276 120,-276 120,-276 154,-276 154,-276 160,-276 166,-282 166,-288 166,-288 166,-300 166,-300 166,-306 160,-312 154,-312"/>
<text text-anchor="middle" x="137" y="-297" font-family="sans" font-size="10.00">Host</text>
<text text-anchor="middle" x="137" y="-286" font-family="sans" font-size="10.00">Genome</text>
</g>
<!-- bowtie2_host -->
<g id="node5" class="node">
<title>bowtie2_host</title>
<path fill="none" stroke="#56d8a2" stroke-width="2" d="M251,-237C251,-237 219,-237 219,-237 213,-237 207,-231 207,-225 207,-225 207,-213 207,-213 207,-207 213,-201 219,-201 219,-201 251,-201 251,-201 257,-201 263,-207 263,-213 263,-213 263,-225 263,-225 263,-231 257,-237 251,-237"/>
<text text-anchor="middle" x="235" y="-222" font-family="sans" font-size="10.00">bowtie2</text>
<text text-anchor="middle" x="235" y="-211" font-family="sans" font-size="10.00">Hosts</text>
</g>
<!-- reference&#45;&gt;bowtie2_host -->
<g id="edge4" class="edge">
<title>reference&#45;&gt;bowtie2_host</title>
<path fill="none" stroke="grey" stroke-width="2" d="M161.24,-275.84C173.65,-266.15 189.09,-254.08 202.56,-243.56"/>
<polygon fill="grey" stroke="grey" stroke-width="2" points="204.92,-246.16 210.64,-237.25 200.61,-240.65 204.92,-246.16"/>
</g>
<!-- fastp&#45;&gt;bowtie2_host -->
<g id="edge1" class="edge">
<title>fastp&#45;&gt;bowtie2_host</title>
<path fill="none" stroke="grey" stroke-width="2" d="M164.23,-219C174.25,-219 185.86,-219 196.71,-219"/>
<polygon fill="grey" stroke="grey" stroke-width="2" points="196.8,-222.5 206.8,-219 196.8,-215.5 196.8,-222.5"/>
</g>
<!-- nonpareil -->
<g id="node7" class="node">
<title>nonpareil</title>
<path fill="none" stroke="#d8c356" stroke-width="2" d="M254,-162C254,-162 216,-162 216,-162 210,-162 204,-156 204,-150 204,-150 204,-138 204,-138 204,-132 210,-126 216,-126 216,-126 254,-126 254,-126 260,-126 266,-132 266,-138 266,-138 266,-150 266,-150 266,-156 260,-162 254,-162"/>
<text text-anchor="middle" x="235" y="-141.5" font-family="sans" font-size="10.00">nonpareil</text>
</g>
<!-- fastp&#45;&gt;nonpareil -->
<g id="edge7" class="edge">
<title>fastp&#45;&gt;nonpareil</title>
<path fill="none" stroke="grey" stroke-width="2" d="M161.24,-200.84C173.65,-191.15 189.09,-179.08 202.56,-168.56"/>
<polygon fill="grey" stroke="grey" stroke-width="2" points="204.92,-171.16 210.64,-162.25 200.61,-165.65 204.92,-171.16"/>
</g>
<!-- singlem -->
<g id="node9" class="node">
<title>singlem</title>
<path fill="none" stroke="#88d856" stroke-width="2" d="M251,-108C251,-108 219,-108 219,-108 213,-108 207,-102 207,-96 207,-96 207,-84 207,-84 207,-78 213,-72 219,-72 219,-72 251,-72 251,-72 257,-72 263,-78 263,-84 263,-84 263,-96 263,-96 263,-102 257,-108 251,-108"/>
<text text-anchor="middle" x="235" y="-87.5" font-family="sans" font-size="10.00">SingleM</text>
</g>
<!-- fastp&#45;&gt;singlem -->
<g id="edge8" class="edge">
<title>fastp&#45;&gt;singlem</title>
<path fill="none" stroke="grey" stroke-width="2" d="M144.88,-200.79C153.75,-179.03 170.85,-142.37 194,-117 195.51,-115.34 197.15,-113.73 198.86,-112.18"/>
<polygon fill="grey" stroke="grey" stroke-width="2" points="201.19,-114.8 206.76,-105.79 196.79,-109.36 201.19,-114.8"/>
</g>
<!-- kraken2 -->
<g id="node10" class="node">
<title>kraken2</title>
<path fill="none" stroke="#d85e56" stroke-width="2" d="M251,-54C251,-54 219,-54 219,-54 213,-54 207,-48 207,-42 207,-42 207,-30 207,-30 207,-24 213,-18 219,-18 219,-18 251,-18 251,-18 257,-18 263,-24 263,-30 263,-30 263,-42 263,-42 263,-48 257,-54 251,-54"/>
<text text-anchor="middle" x="235" y="-33.5" font-family="sans" font-size="10.00">kraken2</text>
</g>
<!-- fastp&#45;&gt;kraken2 -->
<g id="edge6" class="edge">
<title>fastp&#45;&gt;kraken2</title>
<path fill="none" stroke="grey" stroke-width="2" d="M140.73,-200.87C146.16,-169.82 160.8,-105.71 194,-63 195.42,-61.17 197,-59.43 198.69,-57.76"/>
<polygon fill="grey" stroke="grey" stroke-width="2" points="201.27,-60.16 206.63,-51.02 196.74,-54.83 201.27,-60.16"/>
</g>
<!-- bowtie2_host&#45;&gt;bowtie2_mags -->
<g id="edge2" class="edge">
<title>bowtie2_host&#45;&gt;bowtie2_mags</title>
<path fill="none" stroke="grey" stroke-width="2" d="M263.22,-219C272.66,-219 283.42,-219 293.54,-219"/>
<polygon fill="grey" stroke="grey" stroke-width="2" points="293.77,-222.5 303.77,-219 293.77,-215.5 293.77,-222.5"/>
</g>
<!-- coverm -->
<g id="node8" class="node">
<title>coverm</title>
<path fill="none" stroke="#88d856" stroke-width="2" d="M347,-162C347,-162 317,-162 317,-162 311,-162 305,-156 305,-150 305,-150 305,-138 305,-138 305,-132 311,-126 317,-126 317,-126 347,-126 347,-126 353,-126 359,-132 359,-138 359,-138 359,-150 359,-150 359,-156 353,-162 347,-162"/>
<text text-anchor="middle" x="332" y="-141.5" font-family="sans" font-size="10.00">coverm</text>
</g>
<!-- bowtie2_mags&#45;&gt;coverm -->
<g id="edge9" class="edge">
<title>bowtie2_mags&#45;&gt;coverm</title>
<path fill="none" stroke="grey" stroke-width="2" d="M332,-200.79C332,-191.34 332,-181.88 332,-172.43"/>
<polygon fill="grey" stroke="grey" stroke-width="2" points="335.5,-172.16 332,-162.16 328.5,-172.16 335.5,-172.16"/>
</g>
</g>
</svg>
