<?xml version="1.0" encoding="UTF-8" standalone="no"?>
<!DOCTYPE svg PUBLIC "-//W3C//DTD SVG 1.1//EN"
 "http://www.w3.org/Graphics/SVG/1.1/DTD/svg11.dtd">
<!-- Generated by graphviz version 2.43.0 (0)
 -->
<!-- Title: snakemake_dag Pages: 1 -->
<svg width="482pt" height="228pt"
 viewBox="0.00 0.00 482.00 228.00" xmlns="http://www.w3.org/2000/svg" xmlns:xlink="http://www.w3.org/1999/xlink">
<g id="graph0" class="graph" transform="scale(1 1) rotate(0) translate(4 224)">
<title>snakemake_dag</title>
<polygon fill="white" stroke="transparent" points="-4,4 -4,-224 478,-224 478,4 -4,4"/>
<g id="clust1" class="cluster">
<title>cluster_0</title>
<path fill="white" stroke="black" stroke-width="2" d="M20,-137C20,-137 266,-137 266,-137 272,-137 278,-143 278,-149 278,-149 278,-200 278,-200 278,-206 272,-212 266,-212 266,-212 20,-212 20,-212 14,-212 8,-206 8,-200 8,-200 8,-149 8,-149 8,-143 14,-137 20,-137"/>
<text text-anchor="middle" x="143" y="-200" font-family="sans" font-size="10.00">Input</text>
</g>
<g id="clust2" class="cluster">
<title>cluster_1</title>
<path fill="white" stroke="black" stroke-width="2" d="M112,-8C112,-8 364,-8 364,-8 370,-8 376,-14 376,-20 376,-20 376,-125 376,-125 376,-131 370,-137 364,-137 364,-137 112,-137 112,-137 106,-137 100,-131 100,-125 100,-125 100,-20 100,-20 100,-14 106,-8 112,-8"/>
<text text-anchor="middle" x="238" y="-125" font-family="sans" font-size="10.00">Preprocess</text>
</g>
<g id="clust3" class="cluster">
<title>cluster_2</title>
<path fill="white" stroke="black" stroke-width="2" d="M309,-137C309,-137 454,-137 454,-137 460,-137 466,-143 466,-149 466,-149 466,-200 466,-200 466,-206 460,-212 454,-212 454,-212 309,-212 309,-212 303,-212 297,-206 297,-200 297,-200 297,-149 297,-149 297,-143 303,-137 309,-137"/>
<text text-anchor="middle" x="381.5" y="-200" font-family="sans" font-size="10.00">Quantify</text>
</g>
<!-- reads -->
<g id="node1" class="node">
<title>reads</title>
<path fill="none" stroke="#5692d8" stroke-width="2" d="M60,-183C60,-183 30,-183 30,-183 24,-183 18,-177 18,-171 18,-171 18,-159 18,-159 18,-153 24,-147 30,-147 30,-147 60,-147 60,-147 66,-147 72,-153 72,-159 72,-159 72,-171 72,-171 72,-177 66,-183 60,-183"/>
<text text-anchor="middle" x="45" y="-168" font-family="sans" font-size="10.00">FASTQ</text>
<text text-anchor="middle" x="45" y="-157" font-family="sans" font-size="10.00">reads</text>
</g>
<!-- fastp -->
<g id="node4" class="node">
<title>fastp</title>
<path fill="none" stroke="#566bd8" stroke-width="2" d="M152,-108C152,-108 122,-108 122,-108 116,-108 110,-102 110,-96 110,-96 110,-84 110,-84 110,-78 116,-72 122,-72 122,-72 152,-72 152,-72 158,-72 164,-78 164,-84 164,-84 164,-96 164,-96 164,-102 158,-108 152,-108"/>
<text text-anchor="middle" x="137" y="-87.5" font-family="sans" font-size="10.00">fastp</text>
</g>
<!-- reads&#45;&gt;fastp -->
<g id="edge2" class="edge">
<title>reads&#45;&gt;fastp</title>
<path fill="none" stroke="grey" stroke-width="2" d="M67.79,-146.84C79.31,-137.24 93.63,-125.31 106.17,-114.86"/>
<polygon fill="grey" stroke="grey" stroke-width="2" points="108.66,-117.34 114.1,-108.25 104.18,-111.96 108.66,-117.34"/>
</g>
<!-- mags -->
<g id="node2" class="node">
<title>mags</title>
<path fill="none" stroke="#d88d56" stroke-width="2" d="M256,-183C256,-183 214,-183 214,-183 208,-183 202,-177 202,-171 202,-171 202,-159 202,-159 202,-153 208,-147 214,-147 214,-147 256,-147 256,-147 262,-147 268,-153 268,-159 268,-159 268,-171 268,-171 268,-177 262,-183 256,-183"/>
<text text-anchor="middle" x="235" y="-168" font-family="sans" font-size="10.00">MAG</text>
<text text-anchor="middle" x="235" y="-157" font-family="sans" font-size="10.00">Catalogue</text>
</g>
<!-- bowtie2_mags -->
<g id="node9" class="node">
<title>bowtie2_mags</title>
<path fill="none" stroke="#d86656" stroke-width="2" d="M351,-183C351,-183 319,-183 319,-183 313,-183 307,-177 307,-171 307,-171 307,-159 307,-159 307,-153 313,-147 319,-147 319,-147 351,-147 351,-147 357,-147 363,-153 363,-159 363,-159 363,-171 363,-171 363,-177 357,-183 351,-183"/>
<text text-anchor="middle" x="335" y="-168" font-family="sans" font-size="10.00">bowtie2</text>
<text text-anchor="middle" x="335" y="-157" font-family="sans" font-size="10.00">MAGs</text>
</g>
<!-- mags&#45;&gt;bowtie2_mags -->
<g id="edge4" class="edge">
<title>mags&#45;&gt;bowtie2_mags</title>
<path fill="none" stroke="grey" stroke-width="2" d="M268.09,-165C277.17,-165 287.14,-165 296.52,-165"/>
<polygon fill="grey" stroke="grey" stroke-width="2" points="296.77,-168.5 306.77,-165 296.77,-161.5 296.77,-168.5"/>
</g>
<!-- reference -->
<g id="node3" class="node">
<title>reference</title>
<path fill="none" stroke="#d8cb56" stroke-width="2" d="M154,-183C154,-183 120,-183 120,-183 114,-183 108,-177 108,-171 108,-171 108,-159 108,-159 108,-153 114,-147 120,-147 120,-147 154,-147 154,-147 160,-147 166,-153 166,-159 166,-159 166,-171 166,-171 166,-177 160,-183 154,-183"/>
<text text-anchor="middle" x="137" y="-168" font-family="sans" font-size="10.00">Host</text>
<text text-anchor="middle" x="137" y="-157" font-family="sans" font-size="10.00">Genome</text>
</g>
<!-- bowtie2_host -->
<g id="node5" class="node">
<title>bowtie2_host</title>
<path fill="none" stroke="#56d8a2" stroke-width="2" d="M251,-108C251,-108 219,-108 219,-108 213,-108 207,-102 207,-96 207,-96 207,-84 207,-84 207,-78 213,-72 219,-72 219,-72 251,-72 251,-72 257,-72 263,-78 263,-84 263,-84 263,-96 263,-96 263,-102 257,-108 251,-108"/>
<text text-anchor="middle" x="235" y="-93" font-family="sans" font-size="10.00">bowtie2</text>
<text text-anchor="middle" x="235" y="-82" font-family="sans" font-size="10.00">Hosts</text>
</g>
<!-- reference&#45;&gt;bowtie2_host -->
<g id="edge3" class="edge">
<title>reference&#45;&gt;bowtie2_host</title>
<path fill="none" stroke="grey" stroke-width="2" d="M161.24,-146.84C173.65,-137.15 189.09,-125.08 202.56,-114.56"/>
<polygon fill="grey" stroke="grey" stroke-width="2" points="204.92,-117.16 210.64,-108.25 200.61,-111.65 204.92,-117.16"/>
</g>
<!-- fastp&#45;&gt;bowtie2_host -->
<g id="edge1" class="edge">
<title>fastp&#45;&gt;bowtie2_host</title>
<path fill="none" stroke="grey" stroke-width="2" d="M164.23,-83.91C174.25,-83.26 185.86,-83.09 196.71,-83.4"/>
<polygon fill="grey" stroke="grey" stroke-width="2" points="196.65,-86.9 206.8,-83.85 196.96,-79.91 196.65,-86.9"/>
</g>
<!-- fastp&#45;&gt;bowtie2_host -->
<g id="edge6" class="edge">
<title>fastp&#45;&gt;bowtie2_host</title>
<path fill="none" stroke="grey" stroke-width="2" d="M164.23,-96.09C174.25,-96.74 185.86,-96.91 196.71,-96.6"/>
<polygon fill="grey" stroke="grey" stroke-width="2" points="196.96,-100.09 206.8,-96.15 196.65,-93.1 196.96,-100.09"/>
</g>
<!-- kraken2 -->
<g id="node8" class="node">
<title>kraken2</title>
<path fill="none" stroke="#d85e56" stroke-width="2" d="M251,-54C251,-54 219,-54 219,-54 213,-54 207,-48 207,-42 207,-42 207,-30 207,-30 207,-24 213,-18 219,-18 219,-18 251,-18 251,-18 257,-18 263,-24 263,-30 263,-30 263,-42 263,-42 263,-48 257,-54 251,-54"/>
<text text-anchor="middle" x="235" y="-33.5" font-family="sans" font-size="10.00">kraken2</text>
</g>
<!-- fastp&#45;&gt;kraken2 -->
<g id="edge5" class="edge">
<title>fastp&#45;&gt;kraken2</title>
<path fill="none" stroke="grey" stroke-width="2" d="M164.23,-75.24C174.66,-69.38 186.82,-62.54 198.05,-56.22"/>
<polygon fill="grey" stroke="grey" stroke-width="2" points="199.8,-59.26 206.8,-51.3 196.36,-53.15 199.8,-59.26"/>
</g>
<!-- nonpareil -->
<g id="node6" class="node">
<title>nonpareil</title>
<path fill="none" stroke="#d8c356" stroke-width="2" d="M354,-54C354,-54 316,-54 316,-54 310,-54 304,-48 304,-42 304,-42 304,-30 304,-30 304,-24 310,-18 316,-18 316,-18 354,-18 354,-18 360,-18 366,-24 366,-30 366,-30 366,-42 366,-42 366,-48 360,-54 354,-54"/>
<text text-anchor="middle" x="335" y="-33.5" font-family="sans" font-size="10.00">nonpareil</text>
</g>
<!-- bowtie2_host&#45;&gt;nonpareil -->
<g id="edge7" class="edge">
<title>bowtie2_host&#45;&gt;nonpareil</title>
<path fill="none" stroke="grey" stroke-width="2" d="M263.04,-75.1C272.95,-69.64 284.38,-63.34 295.13,-57.42"/>
<polygon fill="grey" stroke="grey" stroke-width="2" points="296.88,-60.45 303.95,-52.56 293.5,-54.32 296.88,-60.45"/>
</g>
<!-- singlem -->
<g id="node7" class="node">
<title>singlem</title>
<path fill="none" stroke="#88d856" stroke-width="2" d="M351,-108C351,-108 319,-108 319,-108 313,-108 307,-102 307,-96 307,-96 307,-84 307,-84 307,-78 313,-72 319,-72 319,-72 351,-72 351,-72 357,-72 363,-78 363,-84 363,-84 363,-96 363,-96 363,-102 357,-108 351,-108"/>
<text text-anchor="middle" x="335" y="-87.5" font-family="sans" font-size="10.00">SingleM</text>
</g>
<!-- bowtie2_host&#45;&gt;singlem -->
<g id="edge8" class="edge">
<title>bowtie2_host&#45;&gt;singlem</title>
<path fill="none" stroke="grey" stroke-width="2" d="M263.04,-90C273.34,-90 285.28,-90 296.39,-90"/>
<polygon fill="grey" stroke="grey" stroke-width="2" points="296.71,-93.5 306.71,-90 296.71,-86.5 296.71,-93.5"/>
</g>
<!-- bowtie2_host&#45;&gt;bowtie2_mags -->
<g id="edge10" class="edge">
<title>bowtie2_host&#45;&gt;bowtie2_mags</title>
<path fill="none" stroke="grey" stroke-width="2" d="M256.39,-108.11C268.01,-118.15 283.01,-130.67 297,-141 297.48,-141.36 297.97,-141.71 298.46,-142.07"/>
<polygon fill="grey" stroke="grey" stroke-width="2" points="296.46,-144.94 306.67,-147.81 300.48,-139.21 296.46,-144.94"/>
</g>
<!-- coverm -->
<g id="node10" class="node">
<title>coverm</title>
<path fill="none" stroke="#88d856" stroke-width="2" d="M444,-183C444,-183 414,-183 414,-183 408,-183 402,-177 402,-171 402,-171 402,-159 402,-159 402,-153 408,-147 414,-147 414,-147 444,-147 444,-147 450,-147 456,-153 456,-159 456,-159 456,-171 456,-171 456,-177 450,-183 444,-183"/>
<text text-anchor="middle" x="429" y="-162.5" font-family="sans" font-size="10.00">coverm</text>
</g>
<!-- bowtie2_mags&#45;&gt;coverm -->
<g id="edge9" class="edge">
<title>bowtie2_mags&#45;&gt;coverm</title>
<path fill="none" stroke="grey" stroke-width="2" d="M363.11,-165C372.06,-165 382.17,-165 391.69,-165"/>
<polygon fill="grey" stroke="grey" stroke-width="2" points="391.72,-168.5 401.72,-165 391.72,-161.5 391.72,-168.5"/>
</g>
</g>
</svg>
