<?xml version="1.0" encoding="UTF-8" standalone="no"?>
<!DOCTYPE svg PUBLIC "-//W3C//DTD SVG 1.1//EN"
 "http://www.w3.org/Graphics/SVG/1.1/DTD/svg11.dtd">
<!-- Generated by graphviz version 2.43.0 (0)
 -->
<!-- Title: snakemake_dag Pages: 1 -->
<svg width="482pt" height="303pt"
 viewBox="0.00 0.00 482.00 303.00" xmlns="http://www.w3.org/2000/svg" xmlns:xlink="http://www.w3.org/1999/xlink">
<g id="graph0" class="graph" transform="scale(1 1) rotate(0) translate(4 299)">
<title>snakemake_dag</title>
<polygon fill="white" stroke="transparent" points="-4,4 -4,-299 478,-299 478,4 -4,4"/>
<g id="clust1" class="cluster">
<title>cluster_0</title>
<path fill="white" stroke="black" stroke-width="2" d="M20,-212C20,-212 266,-212 266,-212 272,-212 278,-218 278,-224 278,-224 278,-275 278,-275 278,-281 272,-287 266,-287 266,-287 20,-287 20,-287 14,-287 8,-281 8,-275 8,-275 8,-224 8,-224 8,-218 14,-212 20,-212"/>
<text text-anchor="middle" x="143" y="-275" font-family="sans" font-size="10.00">Input</text>
</g>
<g id="clust2" class="cluster">
<title>cluster_1</title>
<path fill="white" stroke="black" stroke-width="2" d="M112,-137C112,-137 361,-137 361,-137 367,-137 373,-143 373,-149 373,-149 373,-200 373,-200 373,-206 367,-212 361,-212 361,-212 112,-212 112,-212 106,-212 100,-206 100,-200 100,-200 100,-149 100,-149 100,-143 106,-137 112,-137"/>
<text text-anchor="middle" x="236.5" y="-200" font-family="sans" font-size="10.00">Preprocessing</text>
</g>
<g id="clust3" class="cluster">
<title>cluster_2</title>
<path fill="white" stroke="black" stroke-width="2" d="M209,-8C209,-8 454,-8 454,-8 460,-8 466,-14 466,-20 466,-20 466,-125 466,-125 466,-131 460,-137 454,-137 454,-137 209,-137 209,-137 203,-137 197,-131 197,-125 197,-125 197,-20 197,-20 197,-14 203,-8 209,-8"/>
<text text-anchor="middle" x="331.5" y="-125" font-family="sans" font-size="10.00">Statistics</text>
</g>
<!-- reads -->
<g id="node1" class="node">
<title>reads</title>
<path fill="none" stroke="#5692d8" stroke-width="2" d="M60,-258C60,-258 30,-258 30,-258 24,-258 18,-252 18,-246 18,-246 18,-234 18,-234 18,-228 24,-222 30,-222 30,-222 60,-222 60,-222 66,-222 72,-228 72,-234 72,-234 72,-246 72,-246 72,-252 66,-258 60,-258"/>
<text text-anchor="middle" x="45" y="-243" font-family="sans" font-size="10.00">FASTQ</text>
<text text-anchor="middle" x="45" y="-232" font-family="sans" font-size="10.00">reads</text>
</g>
<!-- fastp -->
<g id="node4" class="node">
<title>fastp</title>
<path fill="none" stroke="#566bd8" stroke-width="2" d="M152,-183C152,-183 122,-183 122,-183 116,-183 110,-177 110,-171 110,-171 110,-159 110,-159 110,-153 116,-147 122,-147 122,-147 152,-147 152,-147 158,-147 164,-153 164,-159 164,-159 164,-171 164,-171 164,-177 158,-183 152,-183"/>
<text text-anchor="middle" x="137" y="-162.5" font-family="sans" font-size="10.00">fastp</text>
</g>
<!-- reads&#45;&gt;fastp -->
<g id="edge3" class="edge">
<title>reads&#45;&gt;fastp</title>
<path fill="none" stroke="grey" stroke-width="2" d="M67.79,-221.84C79.31,-212.24 93.63,-200.31 106.17,-189.86"/>
<polygon fill="grey" stroke="grey" stroke-width="2" points="108.66,-192.34 114.1,-183.25 104.18,-186.96 108.66,-192.34"/>
</g>
<!-- mags -->
<g id="node2" class="node">
<title>mags</title>
<path fill="none" stroke="#d88d56" stroke-width="2" d="M256,-258C256,-258 214,-258 214,-258 208,-258 202,-252 202,-246 202,-246 202,-234 202,-234 202,-228 208,-222 214,-222 214,-222 256,-222 256,-222 262,-222 268,-228 268,-234 268,-234 268,-246 268,-246 268,-252 262,-258 256,-258"/>
<text text-anchor="middle" x="235" y="-243" font-family="sans" font-size="10.00">MAG</text>
<text text-anchor="middle" x="235" y="-232" font-family="sans" font-size="10.00">Catalogue</text>
</g>
<!-- bowtie2_mags -->
<g id="node6" class="node">
<title>bowtie2_mags</title>
<path fill="none" stroke="#d86656" stroke-width="2" d="M351,-183C351,-183 319,-183 319,-183 313,-183 307,-177 307,-171 307,-171 307,-159 307,-159 307,-153 313,-147 319,-147 319,-147 351,-147 351,-147 357,-147 363,-153 363,-159 363,-159 363,-171 363,-171 363,-177 357,-183 351,-183"/>
<text text-anchor="middle" x="335" y="-168" font-family="sans" font-size="10.00">bowtie2</text>
<text text-anchor="middle" x="335" y="-157" font-family="sans" font-size="10.00">MAGs</text>
</g>
<!-- mags&#45;&gt;bowtie2_mags -->
<g id="edge5" class="edge">
<title>mags&#45;&gt;bowtie2_mags</title>
<path fill="none" stroke="grey" stroke-width="2" d="M268.11,-222.63C271.52,-220.5 274.88,-218.27 278,-216 288.63,-208.26 299.5,-198.79 308.81,-190.12"/>
<polygon fill="grey" stroke="grey" stroke-width="2" points="311.38,-192.5 316.21,-183.07 306.55,-187.43 311.38,-192.5"/>
</g>
<!-- reference -->
<g id="node3" class="node">
<title>reference</title>
<path fill="none" stroke="#d8cb56" stroke-width="2" d="M154,-258C154,-258 120,-258 120,-258 114,-258 108,-252 108,-246 108,-246 108,-234 108,-234 108,-228 114,-222 120,-222 120,-222 154,-222 154,-222 160,-222 166,-228 166,-234 166,-234 166,-246 166,-246 166,-252 160,-258 154,-258"/>
<text text-anchor="middle" x="137" y="-243" font-family="sans" font-size="10.00">Host</text>
<text text-anchor="middle" x="137" y="-232" font-family="sans" font-size="10.00">Genome</text>
</g>
<!-- bowtie2_host -->
<g id="node5" class="node">
<title>bowtie2_host</title>
<path fill="none" stroke="#56d8a2" stroke-width="2" d="M251,-183C251,-183 219,-183 219,-183 213,-183 207,-177 207,-171 207,-171 207,-159 207,-159 207,-153 213,-147 219,-147 219,-147 251,-147 251,-147 257,-147 263,-153 263,-159 263,-159 263,-171 263,-171 263,-177 257,-183 251,-183"/>
<text text-anchor="middle" x="235" y="-168" font-family="sans" font-size="10.00">bowtie2</text>
<text text-anchor="middle" x="235" y="-157" font-family="sans" font-size="10.00">Hosts</text>
</g>
<!-- reference&#45;&gt;bowtie2_host -->
<g id="edge4" class="edge">
<title>reference&#45;&gt;bowtie2_host</title>
<path fill="none" stroke="grey" stroke-width="2" d="M161.24,-221.84C173.65,-212.15 189.09,-200.08 202.56,-189.56"/>
<polygon fill="grey" stroke="grey" stroke-width="2" points="204.92,-192.16 210.64,-183.25 200.61,-186.65 204.92,-192.16"/>
</g>
<!-- fastp&#45;&gt;bowtie2_host -->
<g id="edge1" class="edge">
<title>fastp&#45;&gt;bowtie2_host</title>
<path fill="none" stroke="grey" stroke-width="2" d="M164.23,-165C174.25,-165 185.86,-165 196.71,-165"/>
<polygon fill="grey" stroke="grey" stroke-width="2" points="196.8,-168.5 206.8,-165 196.8,-161.5 196.8,-168.5"/>
</g>
<!-- kraken2 -->
<g id="node10" class="node">
<title>kraken2</title>
<path fill="none" stroke="#d85e56" stroke-width="2" d="M251,-108C251,-108 219,-108 219,-108 213,-108 207,-102 207,-96 207,-96 207,-84 207,-84 207,-78 213,-72 219,-72 219,-72 251,-72 251,-72 257,-72 263,-78 263,-84 263,-84 263,-96 263,-96 263,-102 257,-108 251,-108"/>
<text text-anchor="middle" x="235" y="-87.5" font-family="sans" font-size="10.00">kraken2</text>
</g>
<!-- fastp&#45;&gt;kraken2 -->
<g id="edge6" class="edge">
<title>fastp&#45;&gt;kraken2</title>
<path fill="none" stroke="grey" stroke-width="2" d="M161.24,-146.84C173.65,-137.15 189.09,-125.08 202.56,-114.56"/>
<polygon fill="grey" stroke="grey" stroke-width="2" points="204.92,-117.16 210.64,-108.25 200.61,-111.65 204.92,-117.16"/>
</g>
<!-- bowtie2_host&#45;&gt;bowtie2_mags -->
<g id="edge2" class="edge">
<title>bowtie2_host&#45;&gt;bowtie2_mags</title>
<path fill="none" stroke="grey" stroke-width="2" d="M263.04,-165C273.34,-165 285.28,-165 296.39,-165"/>
<polygon fill="grey" stroke="grey" stroke-width="2" points="296.71,-168.5 306.71,-165 296.71,-161.5 296.71,-168.5"/>
</g>
<!-- nonpareil -->
<g id="node7" class="node">
<title>nonpareil</title>
<path fill="none" stroke="#d8c356" stroke-width="2" d="M354,-108C354,-108 316,-108 316,-108 310,-108 304,-102 304,-96 304,-96 304,-84 304,-84 304,-78 310,-72 316,-72 316,-72 354,-72 354,-72 360,-72 366,-78 366,-84 366,-84 366,-96 366,-96 366,-102 360,-108 354,-108"/>
<text text-anchor="middle" x="335" y="-87.5" font-family="sans" font-size="10.00">nonpareil</text>
</g>
<!-- bowtie2_host&#45;&gt;nonpareil -->
<g id="edge7" class="edge">
<title>bowtie2_host&#45;&gt;nonpareil</title>
<path fill="none" stroke="grey" stroke-width="2" d="M263.21,-150.62C268.25,-147.63 273.38,-144.36 278,-141 288.63,-133.26 299.5,-123.79 308.81,-115.12"/>
<polygon fill="grey" stroke="grey" stroke-width="2" points="311.38,-117.5 316.21,-108.07 306.55,-112.43 311.38,-117.5"/>
</g>
<!-- singlem -->
<g id="node9" class="node">
<title>singlem</title>
<path fill="none" stroke="#88d856" stroke-width="2" d="M351,-54C351,-54 319,-54 319,-54 313,-54 307,-48 307,-42 307,-42 307,-30 307,-30 307,-24 313,-18 319,-18 319,-18 351,-18 351,-18 357,-18 363,-24 363,-30 363,-30 363,-42 363,-42 363,-48 357,-54 351,-54"/>
<text text-anchor="middle" x="335" y="-33.5" font-family="sans" font-size="10.00">SingleM</text>
</g>
<!-- bowtie2_host&#45;&gt;singlem -->
<g id="edge8" class="edge">
<title>bowtie2_host&#45;&gt;singlem</title>
<path fill="none" stroke="grey" stroke-width="2" d="M263.09,-153.41C268.61,-150.06 273.95,-145.94 278,-141 301.17,-112.74 283.98,-93.57 304,-63 304.19,-62.71 304.38,-62.43 304.57,-62.15"/>
<polygon fill="grey" stroke="grey" stroke-width="2" points="307.37,-64.25 311.01,-54.3 301.96,-59.81 307.37,-64.25"/>
</g>
<!-- coverm -->
<g id="node8" class="node">
<title>coverm</title>
<path fill="none" stroke="#88d856" stroke-width="2" d="M444,-108C444,-108 414,-108 414,-108 408,-108 402,-102 402,-96 402,-96 402,-84 402,-84 402,-78 408,-72 414,-72 414,-72 444,-72 444,-72 450,-72 456,-78 456,-84 456,-84 456,-96 456,-96 456,-102 450,-108 444,-108"/>
<text text-anchor="middle" x="429" y="-87.5" font-family="sans" font-size="10.00">coverm</text>
</g>
<!-- bowtie2_mags&#45;&gt;coverm -->
<g id="edge9" class="edge">
<title>bowtie2_mags&#45;&gt;coverm</title>
<path fill="none" stroke="grey" stroke-width="2" d="M363.06,-148.23C366.47,-145.89 369.86,-143.45 373,-141 383.11,-133.13 393.58,-123.77 402.64,-115.23"/>
<polygon fill="grey" stroke="grey" stroke-width="2" points="405.07,-117.74 409.87,-108.3 400.23,-112.69 405.07,-117.74"/>
</g>
</g>
</svg>
