<?xml version="1.0" encoding="UTF-8" standalone="no"?>
<!DOCTYPE svg PUBLIC "-//W3C//DTD SVG 1.1//EN"
 "http://www.w3.org/Graphics/SVG/1.1/DTD/svg11.dtd">
<!-- Generated by graphviz version 2.43.0 (0)
 -->
<!-- Title: snakemake_dag Pages: 1 -->
<svg width="480pt" height="246pt"
 viewBox="0.00 0.00 480.00 246.00" xmlns="http://www.w3.org/2000/svg" xmlns:xlink="http://www.w3.org/1999/xlink">
<g id="graph0" class="graph" transform="scale(1 1) rotate(0) translate(4 242)">
<title>snakemake_dag</title>
<polygon fill="white" stroke="transparent" points="-4,4 -4,-242 476,-242 476,4 -4,4"/>
<g id="clust1" class="cluster">
<title>cluster_0</title>
<path fill="white" stroke="black" stroke-width="2" d="M20,-8C20,-8 82,-8 82,-8 88,-8 94,-14 94,-20 94,-20 94,-179 94,-179 94,-185 88,-191 82,-191 82,-191 20,-191 20,-191 14,-191 8,-185 8,-179 8,-179 8,-20 8,-20 8,-14 14,-8 20,-8"/>
<text text-anchor="middle" x="51" y="-179" font-family="sans" font-size="10.00">Input</text>
</g>
<g id="clust2" class="cluster">
<title>cluster_1</title>
<path fill="white" stroke="black" stroke-width="2" d="M122,-83C122,-83 362,-83 362,-83 368,-83 374,-89 374,-95 374,-95 374,-218 374,-218 374,-224 368,-230 362,-230 362,-230 122,-230 122,-230 116,-230 110,-224 110,-218 110,-218 110,-95 110,-95 110,-89 116,-83 122,-83"/>
<text text-anchor="middle" x="242" y="-218" font-family="sans" font-size="10.00">Preprocess</text>
</g>
<g id="clust3" class="cluster">
<title>cluster_2</title>
<path fill="white" stroke="black" stroke-width="2" d="M307,-8C307,-8 452,-8 452,-8 458,-8 464,-14 464,-20 464,-20 464,-71 464,-71 464,-77 458,-83 452,-83 452,-83 307,-83 307,-83 301,-83 295,-77 295,-71 295,-71 295,-20 295,-20 295,-14 301,-8 307,-8"/>
<text text-anchor="middle" x="379.5" y="-71" font-family="sans" font-size="10.00">Quantify</text>
</g>
<!-- reads -->
<g id="node1" class="node">
<title>reads</title>
<path fill="none" stroke="#5692d8" stroke-width="2" d="M66,-162C66,-162 36,-162 36,-162 30,-162 24,-156 24,-150 24,-150 24,-138 24,-138 24,-132 30,-126 36,-126 36,-126 66,-126 66,-126 72,-126 78,-132 78,-138 78,-138 78,-150 78,-150 78,-156 72,-162 66,-162"/>
<text text-anchor="middle" x="51" y="-147" font-family="sans" font-size="10.00">FASTQ</text>
<text text-anchor="middle" x="51" y="-136" font-family="sans" font-size="10.00">reads</text>
</g>
<!-- fastp -->
<g id="node4" class="node">
<title>fastp</title>
<path fill="none" stroke="#566bd8" stroke-width="2" d="M162,-162C162,-162 132,-162 132,-162 126,-162 120,-156 120,-150 120,-150 120,-138 120,-138 120,-132 126,-126 132,-126 132,-126 162,-126 162,-126 168,-126 174,-132 174,-138 174,-138 174,-150 174,-150 174,-156 168,-162 162,-162"/>
<text text-anchor="middle" x="147" y="-141.5" font-family="sans" font-size="10.00">fastp</text>
</g>
<!-- reads&#45;&gt;fastp -->
<g id="edge1" class="edge">
<title>reads&#45;&gt;fastp</title>
<path fill="none" stroke="grey" stroke-width="2" d="M78.18,-144C87.96,-144 99.25,-144 109.77,-144"/>
<polygon fill="grey" stroke="grey" stroke-width="2" points="109.96,-147.5 119.96,-144 109.96,-140.5 109.96,-147.5"/>
</g>
<!-- mags -->
<g id="node2" class="node">
<title>mags</title>
<path fill="none" stroke="#d88d56" stroke-width="2" d="M72,-54C72,-54 30,-54 30,-54 24,-54 18,-48 18,-42 18,-42 18,-30 18,-30 18,-24 24,-18 30,-18 30,-18 72,-18 72,-18 78,-18 84,-24 84,-30 84,-30 84,-42 84,-42 84,-48 78,-54 72,-54"/>
<text text-anchor="middle" x="51" y="-39" font-family="sans" font-size="10.00">MAG</text>
<text text-anchor="middle" x="51" y="-28" font-family="sans" font-size="10.00">Catalogue</text>
</g>
<!-- bowtie2_mags -->
<g id="node9" class="node">
<title>bowtie2_mags</title>
<path fill="none" stroke="#d86656" stroke-width="2" d="M349,-54C349,-54 317,-54 317,-54 311,-54 305,-48 305,-42 305,-42 305,-30 305,-30 305,-24 311,-18 317,-18 317,-18 349,-18 349,-18 355,-18 361,-24 361,-30 361,-30 361,-42 361,-42 361,-48 355,-54 349,-54"/>
<text text-anchor="middle" x="333" y="-39" font-family="sans" font-size="10.00">bowtie2</text>
<text text-anchor="middle" x="333" y="-28" font-family="sans" font-size="10.00">MAGs</text>
</g>
<!-- mags&#45;&gt;bowtie2_mags -->
<g id="edge3" class="edge">
<title>mags&#45;&gt;bowtie2_mags</title>
<path fill="none" stroke="grey" stroke-width="2" d="M84.12,-36C136.34,-36 239.39,-36 294.75,-36"/>
<polygon fill="grey" stroke="grey" stroke-width="2" points="294.83,-39.5 304.83,-36 294.83,-32.5 294.83,-39.5"/>
</g>
<!-- reference -->
<g id="node3" class="node">
<title>reference</title>
<path fill="none" stroke="#d8cb56" stroke-width="2" d="M68,-108C68,-108 34,-108 34,-108 28,-108 22,-102 22,-96 22,-96 22,-84 22,-84 22,-78 28,-72 34,-72 34,-72 68,-72 68,-72 74,-72 80,-78 80,-84 80,-84 80,-96 80,-96 80,-102 74,-108 68,-108"/>
<text text-anchor="middle" x="51" y="-93" font-family="sans" font-size="10.00">Host</text>
<text text-anchor="middle" x="51" y="-82" font-family="sans" font-size="10.00">Genome</text>
</g>
<!-- bowtie2_host -->
<g id="node5" class="node">
<title>bowtie2_host</title>
<path fill="none" stroke="#56d8a2" stroke-width="2" d="M254,-129C254,-129 222,-129 222,-129 216,-129 210,-123 210,-117 210,-117 210,-105 210,-105 210,-99 216,-93 222,-93 222,-93 254,-93 254,-93 260,-93 266,-99 266,-105 266,-105 266,-117 266,-117 266,-123 260,-129 254,-129"/>
<text text-anchor="middle" x="238" y="-114" font-family="sans" font-size="10.00">bowtie2</text>
<text text-anchor="middle" x="238" y="-103" font-family="sans" font-size="10.00">Hosts</text>
</g>
<!-- reference&#45;&gt;bowtie2_host -->
<g id="edge2" class="edge">
<title>reference&#45;&gt;bowtie2_host</title>
<path fill="none" stroke="grey" stroke-width="2" d="M80.1,-93.19C111.98,-96.81 164.11,-102.73 199.46,-106.74"/>
<polygon fill="grey" stroke="grey" stroke-width="2" points="199.51,-110.27 209.85,-107.92 200.3,-103.31 199.51,-110.27"/>
</g>
<!-- fastp&#45;&gt;bowtie2_host -->
<g id="edge6" class="edge">
<title>fastp&#45;&gt;bowtie2_host</title>
<path fill="none" stroke="grey" stroke-width="2" d="M174.22,-134.28C182.34,-131.27 191.45,-127.89 200.15,-124.66"/>
<polygon fill="grey" stroke="grey" stroke-width="2" points="201.57,-127.87 209.73,-121.11 199.14,-121.31 201.57,-127.87"/>
</g>
<!-- kraken2 -->
<g id="node8" class="node">
<title>kraken2</title>
<path fill="none" stroke="#d85e56" stroke-width="2" d="M254,-201C254,-201 222,-201 222,-201 216,-201 210,-195 210,-189 210,-189 210,-177 210,-177 210,-171 216,-165 222,-165 222,-165 254,-165 254,-165 260,-165 266,-171 266,-177 266,-177 266,-189 266,-189 266,-195 260,-201 254,-201"/>
<text text-anchor="middle" x="238" y="-180.5" font-family="sans" font-size="10.00">kraken2</text>
</g>
<!-- fastp&#45;&gt;kraken2 -->
<g id="edge5" class="edge">
<title>fastp&#45;&gt;kraken2</title>
<path fill="none" stroke="grey" stroke-width="2" d="M174.22,-155.49C182.43,-159.09 191.64,-163.12 200.43,-166.98"/>
<polygon fill="grey" stroke="grey" stroke-width="2" points="199.17,-170.24 209.73,-171.05 201.98,-163.83 199.17,-170.24"/>
</g>
<!-- bowtie2_host&#45;&gt;bowtie2_host -->
<g id="edge4" class="edge">
<title>bowtie2_host&#45;&gt;bowtie2_host</title>
<path fill="none" stroke="grey" stroke-width="2" d="M221.72,-129.15C219.21,-138.54 224.64,-147 238,-147 246.14,-147 251.34,-143.86 253.59,-139.28"/>
<polygon fill="grey" stroke="grey" stroke-width="2" points="257.09,-139.37 254.28,-129.15 250.1,-138.89 257.09,-139.37"/>
</g>
<!-- nonpareil -->
<g id="node6" class="node">
<title>nonpareil</title>
<path fill="none" stroke="#d8c356" stroke-width="2" d="M352,-129C352,-129 314,-129 314,-129 308,-129 302,-123 302,-117 302,-117 302,-105 302,-105 302,-99 308,-93 314,-93 314,-93 352,-93 352,-93 358,-93 364,-99 364,-105 364,-105 364,-117 364,-117 364,-123 358,-129 352,-129"/>
<text text-anchor="middle" x="333" y="-108.5" font-family="sans" font-size="10.00">nonpareil</text>
</g>
<!-- bowtie2_host&#45;&gt;nonpareil -->
<g id="edge7" class="edge">
<title>bowtie2_host&#45;&gt;nonpareil</title>
<path fill="none" stroke="grey" stroke-width="2" d="M266.4,-111C274.32,-111 283.14,-111 291.68,-111"/>
<polygon fill="grey" stroke="grey" stroke-width="2" points="291.87,-114.5 301.87,-111 291.87,-107.5 291.87,-114.5"/>
</g>
<!-- singlem -->
<g id="node7" class="node">
<title>singlem</title>
<path fill="none" stroke="#88d856" stroke-width="2" d="M349,-183C349,-183 317,-183 317,-183 311,-183 305,-177 305,-171 305,-171 305,-159 305,-159 305,-153 311,-147 317,-147 317,-147 349,-147 349,-147 355,-147 361,-153 361,-159 361,-159 361,-171 361,-171 361,-177 355,-183 349,-183"/>
<text text-anchor="middle" x="333" y="-162.5" font-family="sans" font-size="10.00">SingleM</text>
</g>
<!-- bowtie2_host&#45;&gt;singlem -->
<g id="edge8" class="edge">
<title>bowtie2_host&#45;&gt;singlem</title>
<path fill="none" stroke="grey" stroke-width="2" d="M266.4,-126.91C275.67,-132.29 286.17,-138.39 296,-144.1"/>
<polygon fill="grey" stroke="grey" stroke-width="2" points="294.39,-147.21 304.8,-149.2 297.91,-141.16 294.39,-147.21"/>
</g>
<!-- bowtie2_host&#45;&gt;bowtie2_mags -->
<g id="edge10" class="edge">
<title>bowtie2_host&#45;&gt;bowtie2_mags</title>
<path fill="none" stroke="grey" stroke-width="2" d="M261.51,-92.84C273.53,-83.15 288.5,-71.08 301.54,-60.56"/>
<polygon fill="grey" stroke="grey" stroke-width="2" points="303.79,-63.25 309.37,-54.25 299.39,-57.8 303.79,-63.25"/>
</g>
<!-- coverm -->
<g id="node10" class="node">
<title>coverm</title>
<path fill="none" stroke="#88d856" stroke-width="2" d="M442,-54C442,-54 412,-54 412,-54 406,-54 400,-48 400,-42 400,-42 400,-30 400,-30 400,-24 406,-18 412,-18 412,-18 442,-18 442,-18 448,-18 454,-24 454,-30 454,-30 454,-42 454,-42 454,-48 448,-54 442,-54"/>
<text text-anchor="middle" x="427" y="-33.5" font-family="sans" font-size="10.00">coverm</text>
</g>
<!-- bowtie2_mags&#45;&gt;coverm -->
<g id="edge9" class="edge">
<title>bowtie2_mags&#45;&gt;coverm</title>
<path fill="none" stroke="grey" stroke-width="2" d="M361.11,-36C370.06,-36 380.17,-36 389.69,-36"/>
<polygon fill="grey" stroke="grey" stroke-width="2" points="389.72,-39.5 399.72,-36 389.72,-32.5 389.72,-39.5"/>
</g>
</g>
</svg>
